<svg width="6" height="8" viewBox="0 0 6 8" fill="none" xmlns="http://www.w3.org/2000/svg">
<path d="M2.52667 4L4.88667 1.64C5.01084 1.51509 5.08053 1.34612 5.08053 1.17C5.08053 0.993875 5.01084 0.824907 4.88667 0.699999C4.82469 0.637513 4.75096 0.587917 4.66972 0.554071C4.58848 0.520225 4.50134 0.5028 4.41334 0.5028C4.32533 0.5028 4.23819 0.520225 4.15695 0.554071C4.07571 0.587917 4.00198 0.637513 3.94 0.699999L1.11334 3.52667C1.05085 3.58864 1.00125 3.66237 0.967409 3.74361C0.933563 3.82485 0.916138 3.91199 0.916138 4C0.916138 4.08801 0.933563 4.17514 0.967409 4.25638C1.00125 4.33762 1.05085 4.41136 1.11334 4.47333L3.94 7.33333C4.0023 7.39512 4.07617 7.444 4.1574 7.47718C4.23862 7.51036 4.3256 7.52717 4.41334 7.52667C4.50107 7.52717 4.58805 7.51036 4.66927 7.47718C4.7505 7.444 4.82438 7.39512 4.88667 7.33333C5.01084 7.20842 5.08053 7.03946 5.08053 6.86333C5.08053 6.68721 5.01084 6.51824 4.88667 6.39333L2.52667 4Z" fill="#71717A"/>
</svg>
