<svg width="6" height="8" viewBox="0 0 6 8" fill="none" xmlns="http://www.w3.org/2000/svg">
<path d="M4.88663 3.52655L2.05996 0.699884C1.99799 0.637399 1.92425 0.587802 1.84301 0.553957C1.76177 0.520111 1.67464 0.502686 1.58663 0.502686C1.49862 0.502686 1.41148 0.520111 1.33024 0.553957C1.249 0.587802 1.17527 0.637399 1.1133 0.699884C0.989128 0.824793 0.919434 0.993761 0.919434 1.16988C0.919434 1.34601 0.989128 1.51498 1.1133 1.63988L3.47329 3.99988L1.1133 6.35988C0.989128 6.48479 0.919434 6.65376 0.919434 6.82988C0.919434 7.00601 0.989128 7.17498 1.1133 7.29988C1.17559 7.36167 1.24947 7.41056 1.33069 7.44373C1.41192 7.47691 1.49889 7.49372 1.58663 7.49322C1.67437 7.49372 1.76134 7.47691 1.84257 7.44373C1.92379 7.41056 1.99767 7.36167 2.05996 7.29988L4.88663 4.47322C4.94911 4.41124 4.99871 4.33751 5.03256 4.25627C5.0664 4.17503 5.08383 4.08789 5.08383 3.99988C5.08383 3.91188 5.0664 3.82474 5.03256 3.7435C4.99871 3.66226 4.94911 3.58853 4.88663 3.52655Z" fill="#71717A"/>
</svg>
