<svg width="20" height="20" viewBox="0 0 20 20" fill="none" xmlns="http://www.w3.org/2000/svg">
<rect width="20" height="20" rx="6" fill="#D4D4D8"/>
<path d="M9.98438 9.7C11.3844 9.7 12.5844 8.5 12.5844 7.1C12.5844 5.7 11.3844 4.5 9.98438 4.5C8.58437 4.5 7.38438 5.7 7.38438 7.1C7.38438 8.5 8.58437 9.7 9.98438 9.7ZM13.7844 12.4C11.1844 10.3 7.38437 10.7 5.28437 13.3C5.08437 13.6 4.98438 13.9 4.98438 14.2C4.98438 14.9 5.58437 15.5 6.28437 15.5H13.6844C14.1844 15.5 14.6844 15.2 14.8844 14.8C15.0844 14.4 15.0844 13.8 14.6844 13.4C14.3844 13 14.0844 12.7 13.7844 12.4Z" fill="#18181B"/>
</svg>
