<svg width="14" height="16" viewBox="0 0 14 16" fill="none" xmlns="http://www.w3.org/2000/svg">
<path d="M7 12.5816C7.12658 12.5816 7.25032 12.5432 7.35556 12.4713C7.46081 12.3994 7.54284 12.2972 7.59128 12.1776C7.63972 12.058 7.65239 11.9263 7.6277 11.7994C7.60301 11.6724 7.54205 11.5558 7.45255 11.4642C7.36304 11.3727 7.249 11.3104 7.12486 11.2851C7.00071 11.2599 6.87203 11.2728 6.75508 11.3224C6.63814 11.3719 6.53818 11.4558 6.46786 11.5634C6.39753 11.6711 6.36 11.7976 6.36 11.9271C6.36 12.1007 6.42743 12.2672 6.54745 12.3899C6.66747 12.5127 6.83026 12.5816 7 12.5816ZM10.2 12.5816C10.3266 12.5816 10.4503 12.5432 10.5556 12.4713C10.6608 12.3994 10.7428 12.2972 10.7913 12.1776C10.8397 12.058 10.8524 11.9263 10.8277 11.7994C10.803 11.6724 10.7421 11.5558 10.6525 11.4642C10.563 11.3727 10.449 11.3104 10.3249 11.2851C10.2007 11.2599 10.072 11.2728 9.95508 11.3224C9.83814 11.3719 9.73818 11.4558 9.66786 11.5634C9.59753 11.6711 9.56 11.7976 9.56 11.9271C9.56 12.1007 9.62743 12.2672 9.74745 12.3899C9.86747 12.5127 10.0303 12.5816 10.2 12.5816ZM10.2 9.96344C10.3266 9.96344 10.4503 9.92505 10.5556 9.85313C10.6608 9.78121 10.7428 9.67898 10.7913 9.55938C10.8397 9.43978 10.8524 9.30817 10.8277 9.1812C10.803 9.05423 10.7421 8.9376 10.6525 8.84606C10.563 8.75452 10.449 8.69218 10.3249 8.66693C10.2007 8.64167 10.072 8.65463 9.95508 8.70417C9.83814 8.75371 9.73818 8.83761 9.66786 8.94525C9.59753 9.05289 9.56 9.17944 9.56 9.30889C9.56 9.48249 9.62743 9.64898 9.74745 9.77173C9.86747 9.89448 10.0303 9.96344 10.2 9.96344ZM7 9.96344C7.12658 9.96344 7.25032 9.92505 7.35556 9.85313C7.46081 9.78121 7.54284 9.67898 7.59128 9.55938C7.63972 9.43978 7.65239 9.30817 7.6277 9.1812C7.60301 9.05423 7.54205 8.9376 7.45255 8.84606C7.36304 8.75452 7.249 8.69218 7.12486 8.66693C7.00071 8.64167 6.87203 8.65463 6.75508 8.70417C6.63814 8.75371 6.53818 8.83761 6.46786 8.94525C6.39753 9.05289 6.36 9.17944 6.36 9.30889C6.36 9.48249 6.42743 9.64898 6.54745 9.77173C6.66747 9.89448 6.83026 9.96344 7 9.96344ZM11.48 2.1089H10.84V1.45435C10.84 1.28075 10.7726 1.11427 10.6525 0.991517C10.5325 0.868765 10.3697 0.799805 10.2 0.799805C10.0303 0.799805 9.86747 0.868765 9.74745 0.991517C9.62743 1.11427 9.56 1.28075 9.56 1.45435V2.1089H4.44V1.45435C4.44 1.28075 4.37257 1.11427 4.25255 0.991517C4.13252 0.868765 3.96974 0.799805 3.8 0.799805C3.63026 0.799805 3.46747 0.868765 3.34745 0.991517C3.22743 1.11427 3.16 1.28075 3.16 1.45435V2.1089H2.52C2.01078 2.1089 1.52242 2.31578 1.16235 2.68403C0.802284 3.05228 0.599998 3.55174 0.599998 4.07253V13.2362C0.599998 13.757 0.802284 14.2564 1.16235 14.6247C1.52242 14.9929 2.01078 15.1998 2.52 15.1998H11.48C11.9892 15.1998 12.4776 14.9929 12.8376 14.6247C13.1977 14.2564 13.4 13.757 13.4 13.2362V4.07253C13.4 3.55174 13.1977 3.05228 12.8376 2.68403C12.4776 2.31578 11.9892 2.1089 11.48 2.1089ZM12.12 13.2362C12.12 13.4098 12.0526 13.5762 11.9325 13.699C11.8125 13.8218 11.6497 13.8907 11.48 13.8907H2.52C2.35026 13.8907 2.18747 13.8218 2.06745 13.699C1.94743 13.5762 1.88 13.4098 1.88 13.2362V7.34526H12.12V13.2362ZM12.12 6.03617H1.88V4.07253C1.88 3.89894 1.94743 3.73245 2.06745 3.6097C2.18747 3.48695 2.35026 3.41799 2.52 3.41799H3.16V4.07253C3.16 4.24613 3.22743 4.41261 3.34745 4.53536C3.46747 4.65812 3.63026 4.72708 3.8 4.72708C3.96974 4.72708 4.13252 4.65812 4.25255 4.53536C4.37257 4.41261 4.44 4.24613 4.44 4.07253V3.41799H9.56V4.07253C9.56 4.24613 9.62743 4.41261 9.74745 4.53536C9.86747 4.65812 10.0303 4.72708 10.2 4.72708C10.3697 4.72708 10.5325 4.65812 10.6525 4.53536C10.7726 4.41261 10.84 4.24613 10.84 4.07253V3.41799H11.48C11.6497 3.41799 11.8125 3.48695 11.9325 3.6097C12.0526 3.73245 12.12 3.89894 12.12 4.07253V6.03617ZM3.8 9.96344C3.92658 9.96344 4.05032 9.92505 4.15556 9.85313C4.26081 9.78121 4.34284 9.67898 4.39128 9.55938C4.43972 9.43978 4.4524 9.30817 4.4277 9.1812C4.40301 9.05423 4.34205 8.9376 4.25255 8.84606C4.16304 8.75452 4.049 8.69218 3.92486 8.66693C3.80071 8.64167 3.67203 8.65463 3.55508 8.70417C3.43814 8.75371 3.33818 8.83761 3.26786 8.94525C3.19753 9.05289 3.16 9.17944 3.16 9.30889C3.16 9.48249 3.22743 9.64898 3.34745 9.77173C3.46747 9.89448 3.63026 9.96344 3.8 9.96344ZM3.8 12.5816C3.92658 12.5816 4.05032 12.5432 4.15556 12.4713C4.26081 12.3994 4.34284 12.2972 4.39128 12.1776C4.43972 12.058 4.4524 11.9263 4.4277 11.7994C4.40301 11.6724 4.34205 11.5558 4.25255 11.4642C4.16304 11.3727 4.049 11.3104 3.92486 11.2851C3.80071 11.2599 3.67203 11.2728 3.55508 11.3224C3.43814 11.3719 3.33818 11.4558 3.26786 11.5634C3.19753 11.6711 3.16 11.7976 3.16 11.9271C3.16 12.1007 3.22743 12.2672 3.34745 12.3899C3.46747 12.5127 3.63026 12.5816 3.8 12.5816Z" fill="#2A190E" style="fill:#2A190E;fill:color(display-p3 0.1647 0.0980 0.0549);fill-opacity:1;"/>
</svg>
