<svg width="18" height="18" viewBox="0 0 18 18" fill="none" xmlns="http://www.w3.org/2000/svg">
<path d="M11.5 8.16675H9.8333V4.83342C9.8333 4.6124 9.7455 4.40044 9.58922 4.24416C9.43294 4.08788 9.22098 4.00008 8.99996 4.00008C8.77895 4.00008 8.56699 4.08788 8.41071 4.24416C8.25443 4.40044 8.16663 4.6124 8.16663 4.83342V9.00008C8.16663 9.2211 8.25443 9.43306 8.41071 9.58934C8.56699 9.74562 8.77895 9.83342 8.99996 9.83342H11.5C11.721 9.83342 11.9329 9.74562 12.0892 9.58934C12.2455 9.43306 12.3333 9.2211 12.3333 9.00008C12.3333 8.77907 12.2455 8.56711 12.0892 8.41083C11.9329 8.25455 11.721 8.16675 11.5 8.16675ZM8.99996 0.666748C7.35179 0.666748 5.74062 1.15549 4.37021 2.07117C2.9998 2.98685 1.9317 4.28834 1.30097 5.81105C0.670237 7.33377 0.505209 9.00933 0.826752 10.6258C1.1483 12.2423 1.94197 13.7272 3.10741 14.8926C4.27284 16.0581 5.7577 16.8517 7.37421 17.1733C8.99072 17.4948 10.6663 17.3298 12.189 16.6991C13.7117 16.0683 15.0132 15.0002 15.9289 13.6298C16.8446 12.2594 17.3333 10.6483 17.3333 9.00008C17.3333 7.90573 17.1177 6.8221 16.699 5.81105C16.2802 4.80001 15.6663 3.88135 14.8925 3.10752C14.1187 2.3337 13.2 1.71987 12.189 1.30109C11.1779 0.882296 10.0943 0.666748 8.99996 0.666748ZM8.99996 15.6667C7.68142 15.6667 6.39249 15.2758 5.29616 14.5432C4.19983 13.8107 3.34535 12.7695 2.84077 11.5513C2.33618 10.3331 2.20416 8.99269 2.46139 7.69948C2.71863 6.40627 3.35357 5.21839 4.28592 4.28604C5.21827 3.35369 6.40615 2.71875 7.69936 2.46151C8.99257 2.20428 10.333 2.3363 11.5512 2.84088C12.7694 3.34547 13.8105 4.19995 14.5431 5.29628C15.2756 6.39261 15.6666 7.68154 15.6666 9.00008C15.6666 10.7682 14.9643 12.4639 13.714 13.7141C12.4638 14.9644 10.7681 15.6667 8.99996 15.6667Z" fill="#52525B"/>
</svg>
