<svg width="14" height="18" viewBox="0 0 14 18" fill="none" xmlns="http://www.w3.org/2000/svg">
<path d="M7.84437 10.1877L8.70242 9.33342H7.49159H1.16659C1.07818 9.33342 0.993395 9.2983 0.930883 9.23578C0.868371 9.17327 0.833252 9.08849 0.833252 9.00008C0.833252 8.91168 0.868371 8.82689 0.930883 8.76438C0.993395 8.70187 1.07818 8.66675 1.16659 8.66675H7.49159H8.70242L7.84437 7.81243L5.92847 5.90486C5.92836 5.90475 5.92825 5.90464 5.92814 5.90453C5.89703 5.87333 5.87234 5.83632 5.85547 5.79562C5.83855 5.75476 5.82984 5.71097 5.82984 5.66675C5.82984 5.62252 5.83855 5.57874 5.85547 5.53788C5.8724 5.49703 5.8972 5.4599 5.92847 5.42864C5.95974 5.39737 5.99686 5.37256 6.03772 5.35564C6.07857 5.33872 6.12236 5.33001 6.16658 5.33001C6.21081 5.33001 6.2546 5.33872 6.29545 5.35564L6.48679 4.8937L6.29545 5.35564C6.33631 5.37256 6.37343 5.39737 6.4047 5.42863L9.73331 8.75725C9.76227 8.78828 9.78505 8.82457 9.8004 8.86417L9.80031 8.86421L9.80409 8.87342C9.83743 8.95457 9.83743 9.04559 9.80409 9.12675L9.804 9.12671L9.8004 9.13599C9.78505 9.17559 9.76227 9.21188 9.73331 9.24292L6.4047 12.5715L6.40325 12.573C6.37226 12.6042 6.33539 12.629 6.29478 12.6459C6.25416 12.6629 6.21059 12.6716 6.16658 12.6716C6.12258 12.6716 6.07901 12.6629 6.03839 12.6459C5.99778 12.629 5.96091 12.6042 5.92992 12.573L5.92702 12.5701C5.89578 12.5391 5.87098 12.5022 5.85406 12.4616C5.83713 12.421 5.82842 12.3774 5.82842 12.3334C5.82842 12.2894 5.83713 12.2458 5.85405 12.2052C5.87098 12.1646 5.89578 12.1277 5.92702 12.0967L5.9277 12.0961L7.84437 10.1877ZM12.5808 1.75253L12.9304 1.40295L12.5808 1.75253C12.9559 2.12761 13.1666 2.63631 13.1666 3.16675V14.8334C13.1666 15.3638 12.9559 15.8726 12.5808 16.2476C12.2057 16.6227 11.697 16.8334 11.1666 16.8334H2.83325C2.30282 16.8334 1.79411 16.6227 1.41904 16.2476C1.04397 15.8726 0.833252 15.3638 0.833252 14.8334V12.3334C0.833252 12.245 0.868371 12.1602 0.930883 12.0977C0.993395 12.0352 1.07818 12.0001 1.16659 12.0001C1.25499 12.0001 1.33978 12.0352 1.40229 12.0977C1.4648 12.1602 1.49992 12.245 1.49992 12.3334V14.8334C1.49992 15.187 1.64039 15.5262 1.89044 15.7762C2.14049 16.0263 2.47963 16.1667 2.83325 16.1667H11.1666C11.5202 16.1667 11.8593 16.0263 12.1094 15.7762C12.3594 15.5262 12.4999 15.187 12.4999 14.8334V3.16675C12.4999 2.81313 12.3594 2.47399 12.1094 2.22394C11.8593 1.97389 11.5202 1.83341 11.1666 1.83341H2.83325C2.47963 1.83341 2.14049 1.97389 1.89044 2.22394C1.64039 2.47399 1.49992 2.81313 1.49992 3.16675V5.66675C1.49992 5.75515 1.4648 5.83994 1.40229 5.90245C1.33978 5.96496 1.25499 6.00008 1.16659 6.00008C1.07818 6.00008 0.993395 5.96496 0.930883 5.90245C0.868371 5.83994 0.833252 5.75515 0.833252 5.66675V3.16675C0.833252 2.63632 1.04397 2.12761 1.41904 1.75253C1.79411 1.37746 2.30282 1.16675 2.83325 1.16675H11.1666C11.697 1.16675 12.2057 1.37746 12.5808 1.75253Z" stroke="#006FEE"/>
</svg>
