<svg width="18" height="16" viewBox="0 0 18 16" fill="none" xmlns="http://www.w3.org/2000/svg">
<path d="M15.7999 2.16656C14.9114 1.28715 13.7377 0.754286 12.4908 0.664129C11.2439 0.573971 10.0058 0.932455 8.99995 1.67489C7.93966 0.886258 6.61994 0.528653 5.30655 0.674092C3.99315 0.81953 2.78364 1.45721 1.92159 2.45871C1.05953 3.46022 0.608963 4.75116 0.660612 6.07157C0.712261 7.39198 1.26229 8.64378 2.19994 9.57489L7.19994 14.6166C7.6687 15.0847 8.30411 15.3477 8.96661 15.3477C9.62911 15.3477 10.2645 15.0847 10.7333 14.6166L15.7333 9.57489C16.2257 9.09377 16.6182 8.52006 16.8882 7.88675C17.1582 7.25345 17.3004 6.57302 17.3066 5.88458C17.3128 5.19615 17.1829 4.51327 16.9243 3.87521C16.6658 3.23715 16.2836 2.65647 15.7999 2.16656ZM14.6249 8.38323L9.62495 13.3832C9.54748 13.4613 9.45531 13.5233 9.35376 13.5656C9.25221 13.6079 9.14329 13.6297 9.03328 13.6297C8.92327 13.6297 8.81435 13.6079 8.7128 13.5656C8.61125 13.5233 8.51908 13.4613 8.44161 13.3832L3.44161 8.38323C2.78808 7.71518 2.42212 6.81778 2.42212 5.88323C2.42212 4.94867 2.78808 4.05127 3.44161 3.38323C4.10757 2.72572 5.00576 2.35703 5.94161 2.35703C6.87747 2.35703 7.77565 2.72572 8.44161 3.38323C8.51908 3.46133 8.61125 3.52333 8.7128 3.56564C8.81435 3.60794 8.92327 3.62973 9.03328 3.62973C9.14329 3.62973 9.25221 3.60794 9.35376 3.56564C9.45531 3.52333 9.54748 3.46133 9.62495 3.38323C10.2909 2.72572 11.1891 2.35703 12.1249 2.35703C13.0608 2.35703 13.959 2.72572 14.6249 3.38323C15.2835 4.05201 15.6526 4.95296 15.6526 5.89156C15.6526 6.83016 15.2835 7.7311 14.6249 8.39989V8.38323Z" fill="#52525B"/>
</svg>
