<svg width="18" height="16" viewBox="0 0 18 16" fill="none" xmlns="http://www.w3.org/2000/svg">
<path d="M14.8333 3.41659H12.3333V2.58325C12.3333 1.92021 12.0699 1.28433 11.6011 0.815485C11.1322 0.346644 10.4963 0.083252 9.83329 0.083252H8.16663C7.50358 0.083252 6.8677 0.346644 6.39886 0.815485C5.93002 1.28433 5.66663 1.92021 5.66663 2.58325V3.41659H3.16663C2.50358 3.41659 1.8677 3.67998 1.39886 4.14882C0.930018 4.61766 0.666626 5.25354 0.666626 5.91658V13.4166C0.666626 14.0796 0.930018 14.7155 1.39886 15.1844C1.8677 15.6532 2.50358 15.9166 3.16663 15.9166H14.8333C15.4963 15.9166 16.1322 15.6532 16.6011 15.1844C17.0699 14.7155 17.3333 14.0796 17.3333 13.4166V5.91658C17.3333 5.25354 17.0699 4.61766 16.6011 4.14882C16.1322 3.67998 15.4963 3.41659 14.8333 3.41659ZM7.33329 2.58325C7.33329 2.36224 7.42109 2.15028 7.57737 1.994C7.73365 1.83772 7.94561 1.74992 8.16663 1.74992H9.83329C10.0543 1.74992 10.2663 1.83772 10.4225 1.994C10.5788 2.15028 10.6666 2.36224 10.6666 2.58325V3.41659H7.33329V2.58325ZM15.6666 13.4166C15.6666 13.6376 15.5788 13.8496 15.4225 14.0058C15.2663 14.1621 15.0543 14.2499 14.8333 14.2499H3.16663C2.94561 14.2499 2.73365 14.1621 2.57737 14.0058C2.42109 13.8496 2.33329 13.6376 2.33329 13.4166V8.83325C3.14616 9.15567 3.98178 9.4175 4.83329 9.61658V10.1083C4.83329 10.3293 4.92109 10.5412 5.07737 10.6975C5.23365 10.8538 5.44561 10.9416 5.66663 10.9416C5.88764 10.9416 6.0996 10.8538 6.25588 10.6975C6.41216 10.5412 6.49996 10.3293 6.49996 10.1083V9.93325C7.32858 10.0461 8.1637 10.1045 8.99996 10.1083C9.83622 10.1045 10.6713 10.0461 11.5 9.93325V10.1083C11.5 10.3293 11.5878 10.5412 11.744 10.6975C11.9003 10.8538 12.1123 10.9416 12.3333 10.9416C12.5543 10.9416 12.7663 10.8538 12.9225 10.6975C13.0788 10.5412 13.1666 10.3293 13.1666 10.1083V9.61658C14.0181 9.4175 14.8538 9.15567 15.6666 8.83325V13.4166ZM15.6666 7.00825C14.8561 7.35033 14.0203 7.62894 13.1666 7.84159V7.58325C13.1666 7.36224 13.0788 7.15028 12.9225 6.994C12.7663 6.83772 12.5543 6.74992 12.3333 6.74992C12.1123 6.74992 11.9003 6.83772 11.744 6.994C11.5878 7.15028 11.5 7.36224 11.5 7.58325V8.19992C9.84267 8.44995 8.15725 8.44995 6.49996 8.19992V7.58325C6.49996 7.36224 6.41216 7.15028 6.25588 6.994C6.0996 6.83772 5.88764 6.74992 5.66663 6.74992C5.44561 6.74992 5.23365 6.83772 5.07737 6.994C4.92109 7.15028 4.83329 7.36224 4.83329 7.58325V7.85825C3.97964 7.64561 3.1438 7.367 2.33329 7.02492V5.91658C2.33329 5.69557 2.42109 5.48361 2.57737 5.32733C2.73365 5.17105 2.94561 5.08325 3.16663 5.08325H14.8333C15.0543 5.08325 15.2663 5.17105 15.4225 5.32733C15.5788 5.48361 15.6666 5.69557 15.6666 5.91658V7.00825Z" fill="#52525B"/>
</svg>
