<svg width="12" height="14" viewBox="0 0 12 14" fill="none" xmlns="http://www.w3.org/2000/svg">
<path d="M6.00033 0.333252C4.58584 0.333252 3.22928 0.895155 2.22909 1.89535C1.2289 2.89554 0.666992 4.2521 0.666992 5.66659C0.666992 9.26659 5.36699 13.3333 5.56699 13.5066C5.68775 13.6099 5.84142 13.6666 6.00033 13.6666C6.15923 13.6666 6.3129 13.6099 6.43366 13.5066C6.66699 13.3333 11.3337 9.26659 11.3337 5.66659C11.3337 4.2521 10.7718 2.89554 9.77156 1.89535C8.77137 0.895155 7.41481 0.333252 6.00033 0.333252ZM6.00033 12.0999C4.58033 10.7666 2.00033 7.89325 2.00033 5.66659C2.00033 4.60572 2.42175 3.5883 3.1719 2.83816C3.92204 2.08801 4.93946 1.66659 6.00033 1.66659C7.06119 1.66659 8.07861 2.08801 8.82875 2.83816C9.5789 3.5883 10.0003 4.60572 10.0003 5.66659C10.0003 7.89325 7.42033 10.7733 6.00033 12.0999ZM6.00033 2.99992C5.47291 2.99992 4.95734 3.15632 4.51881 3.44933C4.08027 3.74235 3.73848 4.15883 3.53665 4.6461C3.33481 5.13337 3.282 5.66954 3.3849 6.18683C3.48779 6.70411 3.74177 7.17926 4.11471 7.5522C4.48765 7.92514 4.9628 8.17912 5.48008 8.28201C5.99737 8.38491 6.53355 8.3321 7.02081 8.13026C7.50808 7.92843 7.92456 7.58664 8.21758 7.14811C8.51059 6.70957 8.66699 6.194 8.66699 5.66659C8.66699 4.95934 8.38604 4.28106 7.88594 3.78097C7.38585 3.28087 6.70757 2.99992 6.00033 2.99992ZM6.00033 6.99992C5.73662 6.99992 5.47883 6.92172 5.25956 6.77521C5.0403 6.6287 4.8694 6.42046 4.76849 6.17683C4.66757 5.9332 4.64116 5.66511 4.69261 5.40647C4.74406 5.14782 4.87105 4.91025 5.05752 4.72378C5.24399 4.53731 5.48156 4.41032 5.7402 4.35887C5.99885 4.30742 6.26693 4.33383 6.51057 4.43475C6.7542 4.53566 6.96244 4.70656 7.10895 4.92583C7.25546 5.14509 7.33366 5.40288 7.33366 5.66659C7.33366 6.02021 7.19318 6.35935 6.94313 6.60939C6.69309 6.85944 6.35395 6.99992 6.00033 6.99992Z" fill="#2A190E" style="fill:#2A190E;fill:color(display-p3 0.1647 0.0980 0.0549);fill-opacity:1;"/>
</svg>
