<svg width="18" height="10" viewBox="0 0 18 10" fill="none" xmlns="http://www.w3.org/2000/svg">
<path d="M1.50002 1.66667H16.5C16.721 1.66667 16.933 1.57887 17.0893 1.42259C17.2456 1.26631 17.3334 1.05435 17.3334 0.833333C17.3334 0.61232 17.2456 0.400358 17.0893 0.244078C16.933 0.0877975 16.721 0 16.5 0H1.50002C1.27901 0 1.06704 0.0877975 0.910765 0.244078C0.754484 0.400358 0.666687 0.61232 0.666687 0.833333C0.666687 1.05435 0.754484 1.26631 0.910765 1.42259C1.06704 1.57887 1.27901 1.66667 1.50002 1.66667ZM16.5 8.33333H1.50002C1.27901 8.33333 1.06704 8.42113 0.910765 8.57741C0.754484 8.73369 0.666687 8.94565 0.666687 9.16667C0.666687 9.38768 0.754484 9.59964 0.910765 9.75592C1.06704 9.9122 1.27901 10 1.50002 10H16.5C16.721 10 16.933 9.9122 17.0893 9.75592C17.2456 9.59964 17.3334 9.38768 17.3334 9.16667C17.3334 8.94565 17.2456 8.73369 17.0893 8.57741C16.933 8.42113 16.721 8.33333 16.5 8.33333ZM16.5 4.16667H1.50002C1.27901 4.16667 1.06704 4.25446 0.910765 4.41074C0.754484 4.56702 0.666687 4.77899 0.666687 5C0.666687 5.22101 0.754484 5.43297 0.910765 5.58926C1.06704 5.74554 1.27901 5.83333 1.50002 5.83333H16.5C16.721 5.83333 16.933 5.74554 17.0893 5.58926C17.2456 5.43297 17.3334 5.22101 17.3334 5C17.3334 4.77899 17.2456 4.56702 17.0893 4.41074C16.933 4.25446 16.721 4.16667 16.5 4.16667Z" fill="#71717A"/>
</svg>
