<svg width="18" height="18" viewBox="0 0 18 18" fill="none" xmlns="http://www.w3.org/2000/svg">
<path d="M7.33329 9.83342H1.49996C1.27895 9.83342 1.06698 9.92121 0.910704 10.0775C0.754423 10.2338 0.666626 10.4457 0.666626 10.6667V16.5001C0.666626 16.7211 0.754423 16.9331 0.910704 17.0893C1.06698 17.2456 1.27895 17.3334 1.49996 17.3334H7.33329C7.55431 17.3334 7.76627 17.2456 7.92255 17.0893C8.07883 16.9331 8.16663 16.7211 8.16663 16.5001V10.6667C8.16663 10.4457 8.07883 10.2338 7.92255 10.0775C7.76627 9.92121 7.55431 9.83342 7.33329 9.83342ZM6.49996 15.6667H2.33329V11.5001H6.49996V15.6667ZM16.5 0.666748H10.6666C10.4456 0.666748 10.2337 0.754545 10.0774 0.910826C9.92109 1.06711 9.83329 1.27907 9.83329 1.50008V7.33342C9.83329 7.55443 9.92109 7.76639 10.0774 7.92267C10.2337 8.07895 10.4456 8.16675 10.6666 8.16675H16.5C16.721 8.16675 16.9329 8.07895 17.0892 7.92267C17.2455 7.76639 17.3333 7.55443 17.3333 7.33342V1.50008C17.3333 1.27907 17.2455 1.06711 17.0892 0.910826C16.9329 0.754545 16.721 0.666748 16.5 0.666748ZM15.6666 6.50008H11.5V2.33341H15.6666V6.50008ZM16.5 9.83342H10.6666C10.4456 9.83342 10.2337 9.92121 10.0774 10.0775C9.92109 10.2338 9.83329 10.4457 9.83329 10.6667V16.5001C9.83329 16.7211 9.92109 16.9331 10.0774 17.0893C10.2337 17.2456 10.4456 17.3334 10.6666 17.3334H16.5C16.721 17.3334 16.9329 17.2456 17.0892 17.0893C17.2455 16.9331 17.3333 16.7211 17.3333 16.5001V10.6667C17.3333 10.4457 17.2455 10.2338 17.0892 10.0775C16.9329 9.92121 16.721 9.83342 16.5 9.83342ZM15.6666 15.6667H11.5V11.5001H15.6666V15.6667ZM7.33329 0.666748H1.49996C1.27895 0.666748 1.06698 0.754545 0.910704 0.910826C0.754423 1.06711 0.666626 1.27907 0.666626 1.50008V7.33342C0.666626 7.55443 0.754423 7.76639 0.910704 7.92267C1.06698 8.07895 1.27895 8.16675 1.49996 8.16675H7.33329C7.55431 8.16675 7.76627 8.07895 7.92255 7.92267C8.07883 7.76639 8.16663 7.55443 8.16663 7.33342V1.50008C8.16663 1.27907 8.07883 1.06711 7.92255 0.910826C7.76627 0.754545 7.55431 0.666748 7.33329 0.666748ZM6.49996 6.50008H2.33329V2.33341H6.49996V6.50008Z" fill="#52525B"/>
</svg>
