<svg width="20" height="16" viewBox="0 0 20 16" fill="none" xmlns="http://www.w3.org/2000/svg">
<path d="M10.25 8.18342C10.6947 7.79853 11.0513 7.32249 11.2958 6.7876C11.5402 6.25272 11.6667 5.67151 11.6667 5.08342C11.6667 3.97835 11.2277 2.91854 10.4463 2.13714C9.66492 1.35574 8.60511 0.916748 7.50004 0.916748C6.39497 0.916748 5.33516 1.35574 4.55376 2.13714C3.77236 2.91854 3.33337 3.97835 3.33337 5.08342C3.33337 5.67151 3.45988 6.25272 3.70431 6.7876C3.94875 7.32249 4.30539 7.79853 4.75004 8.18342C3.58349 8.71165 2.59376 9.56469 1.89919 10.6405C1.20462 11.7164 0.834601 12.9695 0.833374 14.2501C0.833374 14.4711 0.921171 14.6831 1.07745 14.8393C1.23373 14.9956 1.44569 15.0834 1.66671 15.0834C1.88772 15.0834 2.09968 14.9956 2.25596 14.8393C2.41224 14.6831 2.50004 14.4711 2.50004 14.2501C2.50004 12.924 3.02682 11.6522 3.96451 10.7145C4.90219 9.77687 6.17396 9.25008 7.50004 9.25008C8.82612 9.25008 10.0979 9.77687 11.0356 10.7145C11.9733 11.6522 12.5 12.924 12.5 14.2501C12.5 14.4711 12.5878 14.6831 12.7441 14.8393C12.9004 14.9956 13.1124 15.0834 13.3334 15.0834C13.5544 15.0834 13.7663 14.9956 13.9226 14.8393C14.0789 14.6831 14.1667 14.4711 14.1667 14.2501C14.1655 12.9695 13.7955 11.7164 13.1009 10.6405C12.4063 9.56469 11.4166 8.71165 10.25 8.18342ZM7.50004 7.58342C7.00559 7.58342 6.52224 7.43679 6.11111 7.16209C5.69999 6.88739 5.37956 6.49694 5.19034 6.04012C5.00112 5.58331 4.95161 5.08064 5.04808 4.59569C5.14454 4.11074 5.38264 3.66528 5.73227 3.31565C6.0819 2.96602 6.52736 2.72792 7.01231 2.63145C7.49727 2.53499 7.99993 2.5845 8.45675 2.77372C8.91356 2.96294 9.30401 3.28337 9.57871 3.69449C9.85342 4.10561 10 4.58896 10 5.08342C10 5.74646 9.73665 6.38234 9.26781 6.85118C8.79897 7.32002 8.16308 7.58342 7.50004 7.58342ZM15.6167 7.85008C16.15 7.24952 16.4984 6.50763 16.6199 5.7137C16.7414 4.91977 16.6308 4.10764 16.3015 3.37508C15.9722 2.64252 15.4382 2.02074 14.7638 1.5846C14.0893 1.14846 13.3032 0.916533 12.5 0.916748C12.279 0.916748 12.0671 1.00455 11.9108 1.16083C11.7545 1.31711 11.6667 1.52907 11.6667 1.75008C11.6667 1.9711 11.7545 2.18306 11.9108 2.33934C12.0671 2.49562 12.279 2.58342 12.5 2.58342C13.1631 2.58342 13.799 2.84681 14.2678 3.31565C14.7366 3.78449 15 4.42037 15 5.08342C14.9989 5.52112 14.8828 5.95083 14.6634 6.3296C14.4441 6.70836 14.1291 7.0229 13.75 7.24175C13.6265 7.31302 13.5233 7.4148 13.4503 7.53737C13.3774 7.65993 13.3371 7.79917 13.3334 7.94175C13.3299 8.08322 13.3625 8.22325 13.4281 8.34863C13.4937 8.47402 13.5902 8.58063 13.7084 8.65842L14.0334 8.87508L14.1417 8.93342C15.1462 9.40985 15.9936 10.1634 16.5842 11.1053C17.1747 12.0473 17.4838 13.1384 17.475 14.2501C17.475 14.4711 17.5628 14.6831 17.7191 14.8393C17.8754 14.9956 18.0874 15.0834 18.3084 15.0834C18.5294 15.0834 18.7413 14.9956 18.8976 14.8393C19.0539 14.6831 19.1417 14.4711 19.1417 14.2501C19.1485 12.9713 18.8282 11.712 18.2113 10.5918C17.5943 9.47164 16.7012 8.52784 15.6167 7.85008Z" fill="#52525B"/>
</svg>
