<svg width="12" height="12" viewBox="0 0 12 12" fill="none" xmlns="http://www.w3.org/2000/svg">
  <path
    d="M10.6667 5.33333H6.66675V1.33333C6.66675 1.15652 6.59651 0.986953 6.47149 0.861928C6.34646 0.736904 6.17689 0.666666 6.00008 0.666666C5.82327 0.666666 5.6537 0.736904 5.52868 0.861928C5.40365 0.986953 5.33341 1.15652 5.33341 1.33333V5.33333H1.33341C1.1566 5.33333 0.987035 5.40357 0.86201 5.52859C0.736986 5.65362 0.666748 5.82319 0.666748 6C0.666748 6.17681 0.736986 6.34638 0.86201 6.4714C0.987035 6.59643 1.1566 6.66667 1.33341 6.66667H5.33341V10.6667C5.33341 10.8435 5.40365 11.013 5.52868 11.1381C5.6537 11.2631 5.82327 11.3333 6.00008 11.3333C6.17689 11.3333 6.34646 11.2631 6.47149 11.1381C6.59651 11.013 6.66675 10.8435 6.66675 10.6667V6.66667H10.6667C10.8436 6.66667 11.0131 6.59643 11.1382 6.4714C11.2632 6.34638 11.3334 6.17681 11.3334 6C11.3334 5.82319 11.2632 5.65362 11.1382 5.52859C11.0131 5.40357 10.8436 5.33333 10.6667 5.33333Z"
    fill="currentColor"
    style="fill:currentColor;fill:currentColor;" />
</svg>