<svg width="18" height="18" viewBox="0 0 18 18" fill="none" xmlns="http://www.w3.org/2000/svg">
  <path
    d="M14.9831 4.91669H13.8166H11.8166C11.7282 4.91669 11.6434 4.95181 11.5809 5.01432C11.5184 5.07683 11.4833 5.16162 11.4833 5.25002C11.4833 5.33842 11.5184 5.42321 11.5809 5.48572C11.6434 5.54823 11.7282 5.58335 11.8166 5.58335H15.5916C15.68 5.58335 15.7648 5.54823 15.8273 5.48572C15.8898 5.42321 15.925 5.33843 15.925 5.25002V1.50002C15.925 1.41161 15.8898 1.32683 15.8273 1.26432C15.7648 1.20181 15.68 1.16669 15.5916 1.16669C15.5032 1.16669 15.4184 1.20181 15.3559 1.26432C15.2934 1.32683 15.2583 1.41161 15.2583 1.50002V2.97502V4.14469L14.4128 3.33645C13.1083 2.08943 11.4132 1.33108 9.61411 1.18959C7.815 1.0481 6.02222 1.53215 4.53882 2.55992C3.05541 3.58769 1.97237 5.09613 1.47278 6.83026C0.973183 8.56439 1.08768 10.4178 1.7969 12.0773C2.50613 13.7368 3.76659 15.1004 5.36521 15.9378C6.96384 16.7752 8.80256 17.0349 10.5706 16.6731C12.3386 16.3112 13.9274 15.35 15.0686 13.9519C16.2096 12.5538 16.833 10.8047 16.8333 9.00002L14.9831 4.91669ZM14.9831 4.91669L14.1787 4.07189M14.9831 4.91669L14.1787 4.07189M14.1787 4.07189C13.0221 2.85724 11.4782 2.08392 9.81277 1.88514C8.14737 1.68635 6.46477 2.07453 5.05477 2.98283C3.64478 3.89113 2.59565 5.26269 2.08809 6.86127C1.58053 8.45986 1.6463 10.1854 2.27408 11.7407C2.90186 13.296 4.05234 14.5837 5.52739 15.3821C7.00244 16.1804 8.7097 16.4394 10.3551 16.1144C12.0006 15.7894 13.4812 14.9008 14.542 13.6016C15.6023 12.303 16.1768 10.6753 16.1666 8.99886M14.1787 4.07189L16.1666 8.99886M16.1666 8.99886C16.1669 8.91087 16.202 8.82656 16.2643 8.76432C16.3268 8.70181 16.4116 8.66669 16.5 8.66669C16.5884 8.66669 16.6732 8.70181 16.7357 8.76432C16.7982 8.82681 16.8333 8.91157 16.8333 8.99995L16.1666 8.99886Z"
    stroke="currentColor" />
</svg>