<svg width="13" height="18" viewBox="0 0 13 18" fill="none" xmlns="http://www.w3.org/2000/svg">
<path d="M9.83334 0.666504H3.16667C2.50363 0.666504 1.86775 0.929896 1.3989 1.39874C0.930064 1.86758 0.666672 2.50346 0.666672 3.1665V14.8332C0.666672 15.4962 0.930064 16.1321 1.3989 16.6009C1.86775 17.0698 2.50363 17.3332 3.16667 17.3332H9.83334C10.4964 17.3332 11.1323 17.0698 11.6011 16.6009C12.0699 16.1321 12.3333 15.4962 12.3333 14.8332V3.1665C12.3333 2.50346 12.0699 1.86758 11.6011 1.39874C11.1323 0.929896 10.4964 0.666504 9.83334 0.666504ZM10.6667 14.8332C10.6667 15.0542 10.5789 15.2661 10.4226 15.4224C10.2663 15.5787 10.0544 15.6665 9.83334 15.6665H3.16667C2.94566 15.6665 2.7337 15.5787 2.57742 15.4224C2.42114 15.2661 2.33334 15.0542 2.33334 14.8332V13.9998H10.6667V14.8332ZM10.6667 12.3332H2.33334V3.1665C2.33334 2.94549 2.42114 2.73353 2.57742 2.57725C2.7337 2.42097 2.94566 2.33317 3.16667 2.33317H9.83334C10.0544 2.33317 10.2663 2.42097 10.4226 2.57725C10.5789 2.73353 10.6667 2.94549 10.6667 3.1665V12.3332Z" fill="#2A190E" style="fill:#2A190E;fill:color(display-p3 0.1647 0.0980 0.0549);fill-opacity:1;"/>
</svg>
